<svg width="56" height="62" viewBox="0 0 56 62" fill="none" xmlns="http://www.w3.org/2000/svg">
<path fill-rule="evenodd" clip-rule="evenodd" d="M9.02344 21.6974L16.6035 17.3215L16.5496 49.1445C13.6452 47.8132 11.1142 45.9736 9.12067 43.7657V28.72L9.02375 21.6977L9.02344 21.6974Z" fill="white"/>
<path fill-rule="evenodd" clip-rule="evenodd" d="M19.4966 9.17764V18.3729L22.6958 20.2196V30.5261L33.0612 37.5827V0.5L19.4966 9.17764Z" fill="white"/>
<path fill-rule="evenodd" clip-rule="evenodd" d="M38.7529 17.5162L46.1585 22.273V43.6573C44.2096 45.8468 41.7334 47.6798 38.8907 49.0226L38.7529 17.5162Z" fill="white"/>
<path fill-rule="evenodd" clip-rule="evenodd" d="M22.5796 37.8149L22.6372 51.0545C24.234 51.3483 25.8907 51.5048 27.5909 51.5048C31.3866 51.5048 34.9691 50.7335 38.1337 49.3661L22.5796 37.8149Z" fill="#EF7337"/>
<path fill-rule="evenodd" clip-rule="evenodd" d="M33.2696 61.4756C39.6658 59.4828 37.1659 60.9979 39.0927 57.6301C40.9238 54.4291 44.0404 55.0009 47.0863 55.0196L50.5435 51.7332C49.4996 49.6633 47.9685 47.6916 51.7302 45.5732C56.0288 43.1515 54.4507 45.4585 55.1806 40.5005C50.6423 37.5459 50.1518 36.6013 53.5289 32.8076C52.5688 31.0266 52.3775 29.5978 49.7816 28.9402C50.4659 30.7972 50.8349 32.7724 50.8349 34.8201C50.8349 45.6988 40.4277 54.5179 27.5901 54.5179C14.7526 54.5179 4.34536 45.6988 4.34536 34.8201C4.34536 32.7724 4.71433 30.7972 5.39867 28.9402C2.80311 29.5978 2.6127 31.0269 1.65164 32.8076C5.02877 36.601 4.53826 37.5459 0 40.5005C0.729837 45.4585 -0.848257 43.1515 3.45036 45.5732C7.21205 47.6913 5.68101 49.6633 4.63705 51.7332L8.09427 55.0196C11.1404 55.0009 14.2571 54.4291 16.0879 57.6301C18.0153 60.9982 15.5151 59.4831 21.911 61.4756C26.3929 59.6348 29.0364 59.7358 33.2687 61.4756H33.2696Z" fill="white"/>
</svg>
